<?xml version="1.0" standalone="no"?><!DOCTYPE svg PUBLIC "-//W3C//DTD SVG 1.1//EN" "http://www.w3.org/Graphics/SVG/1.1/DTD/svg11.dtd"><svg fill="#ffffff" t="1583675698365" class="icon" viewBox="0 0 1024 1024" version="1.1" xmlns="http://www.w3.org/2000/svg" p-id="1164" xmlns:xlink="http://www.w3.org/1999/xlink" width="200" height="200"><defs><style type="text/css"></style></defs><path d="M262.871501 497.237785a228.424 227.668 0 1 0 467.49539 0 228.424 227.668 0 1 0-467.49539 0Z" p-id="1165"></path><path d="M512.000512 64.020082c-247.272733 0-447.725114 200.453405-447.725114 447.725114 0 247.270686 200.453405 447.724091 447.725114 447.724091 247.270686 0 447.724091-200.454428 447.724091-447.724091C959.724603 264.473487 759.271198 64.020082 512.000512 64.020082zM809.909505 796.963147l-14.159488 14.114462c-10.68434 10.646478-28.004821 10.646478-38.689161 0l-70.294996-71.863724c-52.386114 40.952714-118.404714 65.375963-190.146665 65.375963-170.307827 0-308.370253-137.607054-308.370253-307.353087 0-169.743986 138.062426-307.350017 308.370253-307.350017S804.987403 327.492776 804.987403 497.236761c0 71.396073-24.428366 137.098471-65.401546 189.274808l70.323649 71.8934C820.592822 769.051447 820.592822 786.315646 809.909505 796.963147z" p-id="1166"></path></svg>