<svg id="圖層_1" data-name="圖層 1" xmlns="http://www.w3.org/2000/svg" viewBox="0 0 98 19"><defs><style>.cls-1{fill:#ea0029;}</style></defs><title>rog-logo-98x19-03</title><path class="cls-1" d="M0,8.46H0A17.58,17.58,0,0,0,1.88,12.2c.88,1.14,4.45,2,5,2.15l.06,0h0C4.63,12.77,0,8.46,0,8.46Z"/><path class="cls-1" d="M9.83,15c-.32-.61.08-1.43,2.71-3.37,2.38-1.77,11-9,19.15-10.9A24.62,24.62,0,0,0,21.25,2c-2.19.68-5.41,3.75-11.31,9.53-.81.44-3.68-1.21-5.34-2,0,0,2.75,4.35,3.71,5.66a11.92,11.92,0,0,0,4.19,3.2l0,0A22.35,22.35,0,0,1,9.83,15Z"/><polygon class="cls-1" points="62.69 3.77 61.19 3.77 61.19 8.11 58.47 8.11 58.47 3.77 56.96 3.77 56.96 8.86 62.69 8.86 62.69 3.77"/><polygon class="cls-1" points="74.94 8.09 71.26 8.09 71.26 3.78 69.75 3.78 69.75 8.85 74.25 8.85 74.94 8.09"/><rect class="cls-1" x="75.54" y="3.78" width="1.52" height="5.09"/><polygon class="cls-1" points="93.94 4.52 97.31 4.52 98 3.78 92.43 3.78 92.43 8.84 93.94 8.84 93.94 6.36 97.19 6.36 97.82 5.61 93.94 5.6 93.94 4.52"/><path class="cls-1" d="M52.24,7.21h4.08v-3A.39.39,0,0,0,56,3.77H50.72V8.83h1.52Zm0-2.69h2.45s.13,0,.13.22V6.46H52.23Z"/><path class="cls-1" d="M68.93,5.71h-.44V4.23c0-.28-.15-.47-.37-.47H63.37V8.83h5.56ZM67.41,8.08H64.88V6.46h2.53Zm0-2.38H64.88V4.52h2.4c.13,0,.13.19.13.22Z"/><polygon class="cls-1" points="45.87 8.08 45.87 6.69 49.7 6.69 49.7 5.89 45.87 5.89 45.87 4.51 49.27 4.51 50.03 3.77 44.37 3.77 44.37 8.83 50.03 8.83 49.27 8.08 45.87 8.08"/><polygon class="cls-1" points="79.4 4.52 82.8 4.52 83.56 3.77 77.88 3.77 77.88 8.83 82.81 8.83 83.57 8.08 79.4 8.08 79.4 4.52"/><polygon class="cls-1" points="75.44 12.44 76.11 11.68 70.32 11.68 70.32 14.45 74.5 14.45 74.5 15.97 70.13 15.97 71.07 16.76 76.02 16.76 76.02 13.69 71.84 13.69 71.84 12.44 75.44 12.44"/><path class="cls-1" d="M49.3,11.69H43.91v5.08h1.53V14.6h2.71v2.16h1.51V12.15C49.66,11.93,49.52,11.69,49.3,11.69Zm-1.19,2.15H45.46v-1.4H48c.13,0,.14.17.14.22Z"/><polygon class="cls-1" points="58.92 16.02 58.92 14.62 62.77 14.62 62.77 13.81 58.92 13.81 58.92 12.44 62.33 12.44 63.1 11.68 57.4 11.68 57.4 16.77 63.1 16.77 62.33 16.02 58.92 16.02"/><polygon class="cls-1" points="42.34 12.47 43.15 11.68 37.16 11.68 37.16 16.76 42.93 16.76 42.93 13.99 41.41 13.99 41.41 16 38.69 16 38.69 12.47 42.34 12.47"/><polygon class="cls-1" points="50.49 11.68 50.49 16.78 52.02 16.78 52.02 13.87 53.53 14.89 55.03 13.87 55.03 16.78 56.56 16.78 56.56 11.68 53.53 13.72 50.49 11.68"/><path class="cls-1" d="M69.46,14.58V12.15c0-.22-.14-.47-.36-.47H63.63v5.07h1.54V12.43h2.67c.12,0,.13.17.13.22v1h-2.5l2.74,3.11H70l-1.91-2.17Z"/><path class="cls-1" d="M43.46,7.35V4.24c0-.22,0-.48-.3-.48h-6V7.31L38.74,9V4.52h2.89c.19,0,.24.08.24.26V6.4H39.31l4.16,4.37V9.06L41.89,7.35Z"/><path class="cls-1" d="M91.18,3.77H86.06V7.44l1.23,1.4h4.25V4.17A.38.38,0,0,0,91.18,3.77ZM90,8.09h-1.6l-.84-1V4.53H90Z"/><path class="cls-1" d="M24.84,6c-5.19,2.48-13.95,8.72-13.95,8.72a9.15,9.15,0,0,0,1.19.67c4.24,1.86,10.42,3,11.63,2.6C27,16.9,30.61,10,31.76,6.8c0,0-3.42,1.37-6.89,3C22,11.15,20.21,12,19.38,12.44l-.58.29,8.08-2.44,0,.08c-.27.6-2.33,5.06-5,5.58-2.82.57-7.83-1.41-7.84-1.41.42-.32,5.63-4.23,18-9.27h0a2.48,2.48,0,0,0,1-1.67A25.41,25.41,0,0,0,24.84,6Z"/></svg>